<?xml version="1.0" encoding="UTF-8" standalone="no"?>
<!DOCTYPE svg PUBLIC "-//W3C//DTD SVG 1.1//EN"
 "http://www.w3.org/Graphics/SVG/1.1/DTD/svg11.dtd">
<!-- Generated by graphviz version 16.1.0 (20260904.0139)
 -->
<!-- Title: pid Pages: 1 -->
<svg width="753pt" height="191pt"
 viewBox="0.00 0.00 753.00 191.00" xmlns="http://www.w3.org/2000/svg" xmlns:xlink="http://www.w3.org/1999/xlink">
<g id="graph0" class="graph" transform="scale(1 1) rotate(0) translate(4 187.2)">
<title>pid</title>
<!-- sp -->
<g id="node1" class="node">
<title>sp</title>
<text xml:space="preserve" text-anchor="middle" x="37.62" y="-93.65" font-family="Helvetica,sans-Serif" font-size="16.00">Setpoint</text>
</g>
<!-- s1 -->
<g id="node2" class="node">
<title>s1</title>
<ellipse fill="#ffffff" stroke="#666666" cx="126.05" cy="-100.6" rx="10.8" ry="10.8"/>
</g>
<!-- sp&#45;&gt;s1 -->
<g id="edge1" class="edge">
<title>sp&#45;&gt;s1</title>
<path fill="none" stroke="#333333" d="M75.13,-100.6C75.13,-100.6 106.63,-100.6 106.63,-100.6"/>
<polygon fill="#333333" stroke="#333333" points="106.63,-103.05 113.63,-100.6 106.63,-98.15 106.63,-103.05"/>
<text xml:space="preserve" text-anchor="middle" x="108.64" y="-106.06" font-family="Helvetica,sans-Serif" font-size="14.00">+</text>
</g>
<!-- br -->
<g id="node3" class="node">
<title>br</title>
<ellipse fill="#f9f9ff" stroke="#333333" cx="179.01" cy="-100.6" rx="2.16" ry="2.16"/>
</g>
<!-- s1&#45;&gt;br -->
<g id="edge2" class="edge">
<title>s1&#45;&gt;br</title>
<path fill="none" stroke="#333333" d="M137.28,-100.6C149.91,-100.6 169.57,-100.6 176.49,-100.6"/>
<text xml:space="preserve" text-anchor="start" x="136.64" y="-88.3" font-family="Helvetica,sans-Serif" font-style="italic" font-size="14.00">e</text>
<text xml:space="preserve" text-anchor="start" x="144.14" y="-88.3" font-family="Helvetica,sans-Serif" font-size="14.00">(</text>
<text xml:space="preserve" text-anchor="start" x="148.64" y="-88.3" font-family="Helvetica,sans-Serif" font-style="italic" font-size="14.00">t</text>
<text xml:space="preserve" text-anchor="start" x="152.39" y="-88.3" font-family="Helvetica,sans-Serif" font-size="14.00">)</text>
</g>
<!-- I -->
<g id="node4" class="node">
<title>I</title>
<polygon fill="#f9f9ff" stroke="#666666" points="408.37,-122.2 221.17,-122.2 221.17,-79 408.37,-79 408.37,-122.2"/>
<text xml:space="preserve" text-anchor="start" x="259.64" y="-94.65" font-family="Helvetica,sans-Serif" font-weight="bold" font-size="16.00">I</text>
<text xml:space="preserve" text-anchor="start" x="264.14" y="-94.65" font-family="Helvetica,sans-Serif" font-size="16.00"> &#160;&#160;&#160;</text>
<text xml:space="preserve" text-anchor="start" x="282.14" y="-94.65" font-family="Helvetica,sans-Serif" font-style="italic" font-size="16.00">K</text>
<text xml:space="preserve" text-anchor="start" x="292.64" y="-94.65" font-family="Helvetica,sans-Serif" baseline-shift="sub" font-size="16.00">i</text>
<text xml:space="preserve" text-anchor="start" x="295.64" y="-94.65" font-family="Helvetica,sans-Serif" font-size="16.00"> ∫</text>
<text xml:space="preserve" text-anchor="start" x="304.64" y="-94.65" font-family="Helvetica,sans-Serif" baseline-shift="sub" font-size="16.00">0</text>
<text xml:space="preserve" text-anchor="start" x="312.14" y="-94.65" font-family="Helvetica,sans-Serif" font-style="italic" baseline-shift="super" font-size="16.00">t</text>
<text xml:space="preserve" text-anchor="start" x="315.89" y="-94.65" font-family="Helvetica,sans-Serif" font-size="16.00"> </text>
<text xml:space="preserve" text-anchor="start" x="320.39" y="-94.65" font-family="Helvetica,sans-Serif" font-style="italic" font-size="16.00">e</text>
<text xml:space="preserve" text-anchor="start" x="329.39" y="-94.65" font-family="Helvetica,sans-Serif" font-size="16.00">(</text>
<text xml:space="preserve" text-anchor="start" x="334.64" y="-94.65" font-family="Helvetica,sans-Serif" font-style="italic" font-size="16.00">τ</text>
<text xml:space="preserve" text-anchor="start" x="342.89" y="-94.65" font-family="Helvetica,sans-Serif" font-size="16.00">) d</text>
<text xml:space="preserve" text-anchor="start" x="361.64" y="-94.65" font-family="Helvetica,sans-Serif" font-style="italic" font-size="16.00">τ</text>
</g>
<!-- br&#45;&gt;I -->
<g id="edge4" class="edge">
<title>br&#45;&gt;I</title>
<path fill="none" stroke="#333333" d="M181.37,-100.6C181.37,-100.6 212.46,-100.6 212.46,-100.6"/>
<polygon fill="#333333" stroke="#333333" points="212.46,-103.05 219.46,-100.6 212.46,-98.15 212.46,-103.05"/>
</g>
<!-- P -->
<g id="node9" class="node">
<title>P</title>
<polygon fill="#f9f9ff" stroke="#666666" points="408.37,-183.2 221.17,-183.2 221.17,-140 408.37,-140 408.37,-183.2"/>
<text xml:space="preserve" text-anchor="start" x="277.27" y="-155.65" font-family="Helvetica,sans-Serif" font-weight="bold" font-size="16.00">P</text>
<text xml:space="preserve" text-anchor="start" x="287.77" y="-155.65" font-family="Helvetica,sans-Serif" font-size="16.00"> &#160;&#160;&#160;</text>
<text xml:space="preserve" text-anchor="start" x="305.77" y="-155.65" font-family="Helvetica,sans-Serif" font-style="italic" font-size="16.00">K</text>
<text xml:space="preserve" text-anchor="start" x="316.27" y="-155.65" font-family="Helvetica,sans-Serif" baseline-shift="sub" font-size="16.00">p</text>
<text xml:space="preserve" text-anchor="start" x="323.77" y="-155.65" font-family="Helvetica,sans-Serif" font-size="16.00"> </text>
<text xml:space="preserve" text-anchor="start" x="328.27" y="-155.65" font-family="Helvetica,sans-Serif" font-style="italic" font-size="16.00">e</text>
<text xml:space="preserve" text-anchor="start" x="337.27" y="-155.65" font-family="Helvetica,sans-Serif" font-size="16.00">(</text>
<text xml:space="preserve" text-anchor="start" x="342.52" y="-155.65" font-family="Helvetica,sans-Serif" font-style="italic" font-size="16.00">t</text>
<text xml:space="preserve" text-anchor="start" x="347.02" y="-155.65" font-family="Helvetica,sans-Serif" font-size="16.00">)</text>
</g>
<!-- br&#45;&gt;P -->
<g id="edge3" class="edge">
<title>br:n&#45;&gt;P:w</title>
<path fill="none" stroke="#333333" d="M179.44,-102.96C179.44,-102.96 179.44,-161.6 179.44,-161.6 179.44,-161.6 212.66,-161.6 212.66,-161.6"/>
<polygon fill="#333333" stroke="#333333" points="212.66,-164.05 219.66,-161.6 212.66,-159.15 212.66,-164.05"/>
</g>
<!-- D -->
<g id="node10" class="node">
<title>D</title>
<polygon fill="#f9f9ff" stroke="#666666" points="408.37,-61.2 221.17,-61.2 221.17,-18 408.37,-18 408.37,-61.2"/>
<text xml:space="preserve" text-anchor="start" x="263.39" y="-33.65" font-family="Helvetica,sans-Serif" font-weight="bold" font-size="16.00">D</text>
<text xml:space="preserve" text-anchor="start" x="274.64" y="-33.65" font-family="Helvetica,sans-Serif" font-size="16.00"> &#160;&#160;&#160;</text>
<text xml:space="preserve" text-anchor="start" x="292.64" y="-33.65" font-family="Helvetica,sans-Serif" font-style="italic" font-size="16.00">K</text>
<text xml:space="preserve" text-anchor="start" x="303.14" y="-33.65" font-family="Helvetica,sans-Serif" baseline-shift="sub" font-size="16.00">d</text>
<text xml:space="preserve" text-anchor="start" x="310.64" y="-33.65" font-family="Helvetica,sans-Serif" font-size="16.00"> d</text>
<text xml:space="preserve" text-anchor="start" x="324.14" y="-33.65" font-family="Helvetica,sans-Serif" font-style="italic" font-size="16.00">e</text>
<text xml:space="preserve" text-anchor="start" x="333.14" y="-33.65" font-family="Helvetica,sans-Serif" font-size="16.00">(</text>
<text xml:space="preserve" text-anchor="start" x="338.39" y="-33.65" font-family="Helvetica,sans-Serif" font-style="italic" font-size="16.00">t</text>
<text xml:space="preserve" text-anchor="start" x="342.89" y="-33.65" font-family="Helvetica,sans-Serif" font-size="16.00">)/d</text>
<text xml:space="preserve" text-anchor="start" x="361.64" y="-33.65" font-family="Helvetica,sans-Serif" font-style="italic" font-size="16.00">t</text>
</g>
<!-- br&#45;&gt;D -->
<g id="edge5" class="edge">
<title>br:s&#45;&gt;D:w</title>
<path fill="none" stroke="#333333" d="M179.44,-98.24C179.44,-98.24 179.44,-39.6 179.44,-39.6 179.44,-39.6 212.66,-39.6 212.66,-39.6"/>
<polygon fill="#333333" stroke="#333333" points="212.66,-42.05 219.66,-39.6 212.66,-37.15 212.66,-42.05"/>
</g>
<!-- s2 -->
<g id="node5" class="node">
<title>s2</title>
<ellipse fill="#ffffff" stroke="#666666" cx="459.17" cy="-100.6" rx="10.8" ry="10.8"/>
</g>
<!-- I&#45;&gt;s2 -->
<g id="edge7" class="edge">
<title>I&#45;&gt;s2</title>
<path fill="none" stroke="#333333" d="M408.67,-100.6C408.67,-100.6 439.41,-100.6 439.41,-100.6"/>
<polygon fill="#333333" stroke="#333333" points="439.41,-103.05 446.41,-100.6 439.41,-98.15 439.41,-103.05"/>
</g>
<!-- M -->
<g id="node6" class="node">
<title>M</title>
<polygon fill="#f3eaea" stroke="#880000" points="596.37,-122.2 509.97,-122.2 509.97,-79 596.37,-79 596.37,-122.2"/>
<text xml:space="preserve" text-anchor="start" x="546.42" y="-94.65" font-family="Helvetica,sans-Serif" font-weight="bold" font-size="16.00" fill="#880000">M</text>
</g>
<!-- s2&#45;&gt;M -->
<g id="edge9" class="edge">
<title>s2&#45;&gt;M</title>
<path fill="none" stroke="#333333" d="M470.32,-100.6C470.32,-100.6 501.12,-100.6 501.12,-100.6"/>
<polygon fill="#333333" stroke="#333333" points="501.12,-103.05 508.12,-100.6 501.12,-98.15 501.12,-103.05"/>
<text xml:space="preserve" text-anchor="start" x="485.72" y="-88.3" font-family="Helvetica,sans-Serif" font-style="italic" font-size="14.00">u</text>
<text xml:space="preserve" text-anchor="start" x="493.22" y="-88.3" font-family="Helvetica,sans-Serif" font-size="14.00">(</text>
<text xml:space="preserve" text-anchor="start" x="497.72" y="-88.3" font-family="Helvetica,sans-Serif" font-style="italic" font-size="14.00">t</text>
<text xml:space="preserve" text-anchor="start" x="501.47" y="-88.3" font-family="Helvetica,sans-Serif" font-size="14.00">)</text>
</g>
<!-- br2 -->
<g id="node7" class="node">
<title>br2</title>
<ellipse fill="#f9f9ff" stroke="#333333" cx="638.53" cy="-100.6" rx="2.16" ry="2.16"/>
</g>
<!-- M&#45;&gt;br2 -->
<g id="edge10" class="edge">
<title>M&#45;&gt;br2</title>
<path fill="none" stroke="#333333" d="M596.85,-100.6C613.59,-100.6 630.12,-100.6 636.14,-100.6"/>
</g>
<!-- out -->
<g id="node8" class="node">
<title>out</title>
<text xml:space="preserve" text-anchor="middle" x="713.06" y="-93.65" font-family="Helvetica,sans-Serif" font-size="16.00">Output</text>
</g>
<!-- br2&#45;&gt;out -->
<g id="edge11" class="edge">
<title>br2&#45;&gt;out</title>
<path fill="none" stroke="#333333" d="M641.01,-100.6C641.01,-100.6 672.22,-100.6 672.22,-100.6"/>
<polygon fill="#333333" stroke="#333333" points="672.22,-103.05 679.22,-100.6 672.22,-98.15 672.22,-103.05"/>
</g>
<!-- fb -->
<g id="node11" class="node">
<title>fb</title>
<ellipse fill="#f9f9ff" stroke="#333333" cx="638.53" cy="-34.6" rx="0.36" ry="0.36"/>
</g>
<!-- br2&#45;&gt;fb -->
<g id="edge12" class="edge">
<title>br2:s&#45;&gt;fb</title>
<path fill="none" stroke="#333333" d="M638.44,-98.24C638.44,-98.24 638.44,-42.31 638.44,-35.31"/>
</g>
<!-- P&#45;&gt;s2 -->
<g id="edge6" class="edge">
<title>P:e&#45;&gt;s2:n</title>
<path fill="none" stroke="#333333" d="M408.37,-161.6C408.37,-161.6 459.44,-161.6 459.44,-161.6 459.44,-161.6 459.44,-120.01 459.44,-120.01"/>
<polygon fill="#333333" stroke="#333333" points="461.89,-120.01 459.44,-113.01 456.99,-120.01 461.89,-120.01"/>
</g>
<!-- D&#45;&gt;s2 -->
<g id="edge8" class="edge">
<title>D:e&#45;&gt;s2:s</title>
<path fill="none" stroke="#333333" d="M408.37,-48.4C408.37,-48.4 459.44,-48.4 459.44,-48.4 459.44,-48.4 459.44,-81.19 459.44,-81.19"/>
<polygon fill="#333333" stroke="#333333" points="456.99,-81.19 459.44,-88.19 461.89,-81.19 456.99,-81.19"/>
</g>
<!-- fb&#45;&gt;s1 -->
<g id="edge13" class="edge">
<title>fb&#45;&gt;s1:s</title>
<path fill="none" stroke="#333333" d="M638.44,-34.21C638.44,-30.41 638.44,0 638.44,0 638.44,0 126.44,0 126.44,0 126.44,0 126.44,-81.19 126.44,-81.19"/>
<polygon fill="#333333" stroke="#333333" points="123.99,-81.19 126.44,-88.19 128.89,-81.19 123.99,-81.19"/>
<text xml:space="preserve" text-anchor="middle" x="116.48" y="-75.54" font-family="Helvetica,sans-Serif" font-size="14.00">−</text>
</g>
</g>
</svg>
