<svg xmlns="http://www.w3.org/2000/svg" viewBox="-6 -6 912 482" width="912" height="482" font-family="Helvetica, Arial, sans-serif">
<defs></defs>
<line x1="40" y1="20" x2="40" y2="450" stroke="#333333" stroke-width="4"/>
<line x1="860" y1="20" x2="860" y2="450" stroke="#333333" stroke-width="4"/>
<line x1="120" y1="54" x2="120" y2="86" stroke="#333333" stroke-width="2.2"/>
<line x1="140" y1="54" x2="140" y2="86" stroke="#333333" stroke-width="2.2"/>
<text x="130" y="42" font-size="15" text-anchor="middle" fill="#000088" font-family="'Courier New', Courier, monospace" dominant-baseline="middle">Start_PB</text>
<line x1="320" y1="54" x2="320" y2="86" stroke="#333333" stroke-width="2.2"/>
<line x1="340" y1="54" x2="340" y2="86" stroke="#333333" stroke-width="2.2"/>
<line x1="316" y1="88" x2="344" y2="52" stroke="#333333" stroke-width="1.8"/>
<text x="330" y="42" font-size="15" text-anchor="middle" fill="#000088" font-family="'Courier New', Courier, monospace" dominant-baseline="middle">Stop_PB</text>
<line x1="470" y1="54" x2="470" y2="86" stroke="#333333" stroke-width="2.2"/>
<line x1="490" y1="54" x2="490" y2="86" stroke="#333333" stroke-width="2.2"/>
<line x1="466" y1="88" x2="494" y2="52" stroke="#333333" stroke-width="1.8"/>
<text x="480" y="42" font-size="15" text-anchor="middle" fill="#000088" font-family="'Courier New', Courier, monospace" dominant-baseline="middle">Overload</text>
<path d="M754,54 A18,18 0 0 0 754,86" stroke="#333333" stroke-width="2.2" fill="none" stroke-linejoin="round"/>
<path d="M766,54 A18,18 0 0 1 766,86" stroke="#333333" stroke-width="2.2" fill="none" stroke-linejoin="round"/>
<text x="760" y="42" font-size="15" text-anchor="middle" fill="#008800" font-family="'Courier New', Courier, monospace" dominant-baseline="middle">Motor</text>
<polyline points="40,70 120,70" stroke="#333333" stroke-width="1.8" fill="none" stroke-linejoin="round"/>
<polyline points="140,70 320,70" stroke="#333333" stroke-width="1.8" fill="none" stroke-linejoin="round"/>
<polyline points="340,70 470,70" stroke="#333333" stroke-width="1.8" fill="none" stroke-linejoin="round"/>
<polyline points="490,70 748,70" stroke="#333333" stroke-width="1.8" fill="none" stroke-linejoin="round"/>
<polyline points="772,70 860,70" stroke="#333333" stroke-width="1.8" fill="none" stroke-linejoin="round"/>
<line x1="120" y1="124" x2="120" y2="156" stroke="#333333" stroke-width="2.2"/>
<line x1="140" y1="124" x2="140" y2="156" stroke="#333333" stroke-width="2.2"/>
<text x="130" y="112" font-size="15" text-anchor="middle" fill="#000088" font-family="'Courier New', Courier, monospace" dominant-baseline="middle">Motor</text>
<polyline points="70,70 70,140 120,140" stroke="#333333" stroke-width="1.8" fill="none" stroke-linejoin="round"/>
<polyline points="140,140 230,140 230,70" stroke="#333333" stroke-width="1.8" fill="none" stroke-linejoin="round"/>
<circle cx="70" cy="70" r="3.5" fill="#333333" stroke="none" stroke-width="0"/>
<circle cx="230" cy="70" r="3.5" fill="#333333" stroke="none" stroke-width="0"/>
<text x="330" y="140" font-size="13" text-anchor="start" fill="#777777" font-style="italic" font-family="Helvetica, Arial, sans-serif" dominant-baseline="middle">seal-in (self-holding) branch</text>
<line x1="120" y1="189" x2="120" y2="221" stroke="#333333" stroke-width="2.2"/>
<line x1="140" y1="189" x2="140" y2="221" stroke="#333333" stroke-width="2.2"/>
<text x="130" y="177" font-size="15" text-anchor="middle" fill="#000088" font-family="'Courier New', Courier, monospace" dominant-baseline="middle">Motor</text>
<line x1="320" y1="189" x2="320" y2="221" stroke="#333333" stroke-width="2.2"/>
<line x1="340" y1="189" x2="340" y2="221" stroke="#333333" stroke-width="2.2"/>
<line x1="316" y1="223" x2="344" y2="187" stroke="#333333" stroke-width="1.8"/>
<text x="330" y="177" font-size="15" text-anchor="middle" fill="#000088" font-family="'Courier New', Courier, monospace" dominant-baseline="middle">Level_Hi</text>
<path d="M754,189 A18,18 0 0 0 754,221" stroke="#333333" stroke-width="2.2" fill="none" stroke-linejoin="round"/>
<path d="M766,189 A18,18 0 0 1 766,221" stroke="#333333" stroke-width="2.2" fill="none" stroke-linejoin="round"/>
<text x="760" y="177" font-size="15" text-anchor="middle" fill="#008800" font-family="'Courier New', Courier, monospace" dominant-baseline="middle">Inlet_Valve</text>
<polyline points="40,205 120,205" stroke="#333333" stroke-width="1.8" fill="none" stroke-linejoin="round"/>
<polyline points="140,205 320,205" stroke="#333333" stroke-width="1.8" fill="none" stroke-linejoin="round"/>
<polyline points="340,205 748,205" stroke="#333333" stroke-width="1.8" fill="none" stroke-linejoin="round"/>
<polyline points="772,205 860,205" stroke="#333333" stroke-width="1.8" fill="none" stroke-linejoin="round"/>
<line x1="120" y1="304" x2="120" y2="336" stroke="#333333" stroke-width="2.2"/>
<line x1="140" y1="304" x2="140" y2="336" stroke="#333333" stroke-width="2.2"/>
<text x="130" y="292" font-size="15" text-anchor="middle" fill="#000088" font-family="'Courier New', Courier, monospace" dominant-baseline="middle">Motor</text>
<rect x="400" y="294" width="120" height="70" rx="0" fill="#e8f4e8" stroke="#008800" stroke-width="1.5"/>
<text x="460" y="280" font-size="15" text-anchor="middle" fill="#008800" font-family="'Courier New', Courier, monospace" dominant-baseline="middle">T1</text>
<text x="460" y="308" font-size="15" text-anchor="middle" fill="#333333" font-weight="bold" font-family="Helvetica, Arial, sans-serif" dominant-baseline="middle">TON</text>
<text x="408" y="320" font-size="13" text-anchor="start" fill="#333333" font-family="Helvetica, Arial, sans-serif" dominant-baseline="middle">IN</text>
<text x="512" y="320" font-size="13" text-anchor="end" fill="#333333" font-family="Helvetica, Arial, sans-serif" dominant-baseline="middle">Q</text>
<text x="408" y="348" font-size="13" text-anchor="start" fill="#333333" font-family="Helvetica, Arial, sans-serif" dominant-baseline="middle">PT</text>
<text x="512" y="348" font-size="13" text-anchor="end" fill="#333333" font-family="Helvetica, Arial, sans-serif" dominant-baseline="middle">ET</text>
<polyline points="40,320 120,320" stroke="#333333" stroke-width="1.8" fill="none" stroke-linejoin="round"/>
<polyline points="140,320 400,320" stroke="#333333" stroke-width="1.8" fill="none" stroke-linejoin="round"/>
<line x1="340" y1="348" x2="400" y2="348" stroke="#333333" stroke-width="1.8"/>
<text x="334" y="348" font-size="14" text-anchor="end" fill="#000088" font-family="'Courier New', Courier, monospace" dominant-baseline="middle">T#10s</text>
<line x1="120" y1="404" x2="120" y2="436" stroke="#333333" stroke-width="2.2"/>
<line x1="140" y1="404" x2="140" y2="436" stroke="#333333" stroke-width="2.2"/>
<text x="130" y="392" font-size="15" text-anchor="middle" fill="#000088" font-family="'Courier New', Courier, monospace" dominant-baseline="middle">T1.Q</text>
<path d="M754,404 A18,18 0 0 0 754,436" stroke="#333333" stroke-width="2.2" fill="none" stroke-linejoin="round"/>
<path d="M766,404 A18,18 0 0 1 766,436" stroke="#333333" stroke-width="2.2" fill="none" stroke-linejoin="round"/>
<text x="760" y="421" font-size="14" text-anchor="middle" fill="#333333" font-weight="bold" font-family="Helvetica, Arial, sans-serif" dominant-baseline="middle">S</text>
<text x="760" y="392" font-size="15" text-anchor="middle" fill="#008800" font-family="'Courier New', Courier, monospace" dominant-baseline="middle">Run_Lamp</text>
<polyline points="40,420 120,420" stroke="#333333" stroke-width="1.8" fill="none" stroke-linejoin="round"/>
<polyline points="140,420 748,420" stroke="#333333" stroke-width="1.8" fill="none" stroke-linejoin="round"/>
<polyline points="772,420 860,420" stroke="#333333" stroke-width="1.8" fill="none" stroke-linejoin="round"/>
</svg>
