<?xml version="1.0" encoding="UTF-8" standalone="no"?>
<!DOCTYPE svg PUBLIC "-//W3C//DTD SVG 1.1//EN"
 "http://www.w3.org/Graphics/SVG/1.1/DTD/svg11.dtd">
<!-- Generated by graphviz version 16.1.0 (20260904.0139)
 -->
<!-- Title: yardstick_loop Pages: 1 -->
<svg width="611pt" height="174pt"
 viewBox="0.00 0.00 611.00 174.00" xmlns="http://www.w3.org/2000/svg" xmlns:xlink="http://www.w3.org/1999/xlink">
<g id="graph0" class="graph" transform="scale(1 1) rotate(0) translate(4 170.3)">
<title>yardstick_loop</title>
<!-- in -->
<!-- sum -->
<g id="node2" class="node">
<title>sum</title>
<ellipse fill="#ffffff" stroke="#666666" cx="47.52" cy="-74.5" rx="10.8" ry="10.8"/>
</g>
<!-- in&#45;&gt;sum -->
<g id="edge1" class="edge">
<title>in&#45;&gt;sum</title>
<path fill="none" stroke="#333333" d="M1.18,-74.5C1.18,-74.5 27.8,-74.5 27.8,-74.5"/>
<polygon fill="#333333" stroke="#333333" points="27.8,-76.95 34.8,-74.5 27.8,-72.05 27.8,-76.95"/>
<text xml:space="preserve" text-anchor="middle" x="29.81" y="-80.16" font-family="Helvetica,sans-Serif" font-size="13.00">+</text>
</g>
<!-- drv -->
<g id="node3" class="node">
<title>drv</title>
<polygon fill="#f9f9ff" stroke="#666666" points="195.12,-94.3 94.32,-94.3 94.32,-54.7 195.12,-54.7 195.12,-94.3"/>
<text xml:space="preserve" text-anchor="middle" x="144.72" y="-76.2" font-family="Helvetica,sans-Serif" font-size="14.00">Driver /</text>
<text xml:space="preserve" text-anchor="middle" x="144.72" y="-61.2" font-family="Helvetica,sans-Serif" font-size="14.00">controller</text>
</g>
<!-- sum&#45;&gt;drv -->
<g id="edge2" class="edge">
<title>sum&#45;&gt;drv</title>
<path fill="none" stroke="#333333" d="M58.67,-74.5C58.67,-74.5 85.46,-74.5 85.46,-74.5"/>
<polygon fill="#333333" stroke="#333333" points="85.46,-76.95 92.46,-74.5 85.46,-72.05 85.46,-76.95"/>
</g>
<!-- mot -->
<g id="node4" class="node">
<title>mot</title>
<polygon fill="#f9f9ff" stroke="#666666" points="360.72,-94.3 259.92,-94.3 259.92,-54.7 360.72,-54.7 360.72,-94.3"/>
<text xml:space="preserve" text-anchor="middle" x="310.32" y="-68.7" font-family="Helvetica,sans-Serif" font-size="14.00">Motor</text>
</g>
<!-- drv&#45;&gt;mot -->
<g id="edge3" class="edge">
<title>drv&#45;&gt;mot</title>
<path fill="none" stroke="#333333" d="M195.31,-74.5C195.31,-74.5 250.96,-74.5 250.96,-74.5"/>
<polygon fill="#333333" stroke="#333333" points="250.96,-76.95 257.96,-74.5 250.96,-72.05 250.96,-76.95"/>
</g>
<!-- proc -->
<g id="node5" class="node">
<title>proc</title>
<polygon fill="#f9f9ff" stroke="#666666" points="526.32,-94.3 425.52,-94.3 425.52,-54.7 526.32,-54.7 526.32,-94.3"/>
<text xml:space="preserve" text-anchor="middle" x="475.92" y="-68.7" font-family="Helvetica,sans-Serif" font-size="14.00">Process</text>
</g>
<!-- mot&#45;&gt;proc -->
<g id="edge4" class="edge">
<title>mot&#45;&gt;proc</title>
<path fill="none" stroke="#333333" d="M360.91,-74.5C360.91,-74.5 416.56,-74.5 416.56,-74.5"/>
<polygon fill="#333333" stroke="#333333" points="416.56,-76.95 423.56,-74.5 416.56,-72.05 416.56,-76.95"/>
</g>
<!-- meas -->
<g id="node8" class="node">
<title>meas</title>
<text xml:space="preserve" text-anchor="middle" x="310.32" y="-5.7" font-family="Helvetica,sans-Serif" font-size="14.00">Measurement (A4)</text>
</g>
<!-- mot&#45;&gt;meas -->
<g id="edge7" class="edge">
<title>mot:s&#45;&gt;meas:n</title>
<path fill="none" stroke="#333333" d="M293.64,-54.7C293.64,-54.7 293.64,-22.94 293.64,-22.94"/>
</g>
<!-- mot&#45;&gt;meas -->
<!-- tap -->
<g id="node6" class="node">
<title>tap</title>
<ellipse fill="#f9f9ff" stroke="#333333" cx="564.12" cy="-74.5" rx="1.8" ry="1.8"/>
</g>
<!-- proc&#45;&gt;tap -->
<g id="edge5" class="edge">
<title>proc&#45;&gt;tap</title>
<path fill="none" stroke="#333333" d="M526.72,-74.5C542.34,-74.5 556.81,-74.5 562.05,-74.5"/>
</g>
<!-- out -->
<!-- tap&#45;&gt;out -->
<g id="edge6" class="edge">
<title>tap&#45;&gt;out</title>
<path fill="none" stroke="#333333" d="M566.17,-74.5C566.17,-74.5 593.06,-74.5 593.06,-74.5"/>
<polygon fill="#333333" stroke="#333333" points="593.06,-76.95 600.06,-74.5 593.06,-72.05 593.06,-76.95"/>
</g>
<!-- model -->
<g id="node9" class="node">
<title>model</title>
<polygon fill="#f3eaea" stroke="#880000" points="389.52,-166.3 231.12,-166.3 231.12,-126.7 389.52,-126.7 389.52,-166.3"/>
<text xml:space="preserve" text-anchor="middle" x="310.32" y="-140.7" font-family="Helvetica,sans-Serif" font-size="14.00" fill="#880000">Process model (A5)</text>
</g>
<!-- tap&#45;&gt;model -->
<g id="edge9" class="edge">
<title>tap:n&#45;&gt;model:e</title>
<path fill="none" stroke="#880000" d="M563.64,-76.78C563.64,-76.78 563.64,-146.5 563.64,-146.5 563.64,-146.5 398.03,-146.5 398.03,-146.5"/>
<polygon fill="#880000" stroke="#880000" points="398.03,-144.05 391.03,-146.5 398.03,-148.95 398.03,-144.05"/>
</g>
<!-- meas&#45;&gt;sum -->
<g id="edge8" class="edge">
<title>meas:w&#45;&gt;sum:s</title>
<path fill="none" stroke="#333333" d="M245.76,-11.5C245.76,-11.5 47.64,-11.5 47.64,-11.5 47.64,-11.5 47.64,-55.09 47.64,-55.09"/>
<polygon fill="#333333" stroke="#333333" points="45.19,-55.09 47.64,-62.09 50.09,-55.09 45.19,-55.09"/>
<text xml:space="preserve" text-anchor="middle" x="37.68" y="-49.64" font-family="Helvetica,sans-Serif" font-size="13.00">−</text>
</g>
<!-- model&#45;&gt;sum -->
<g id="edge10" class="edge">
<title>model:w&#45;&gt;sum:n</title>
<path fill="none" stroke="#880000" d="M231.12,-146.5C231.12,-146.5 47.64,-146.5 47.64,-146.5 47.64,-146.5 47.64,-93.91 47.64,-93.91"/>
<polygon fill="#880000" stroke="#880000" points="50.09,-93.91 47.64,-86.91 45.19,-93.91 50.09,-93.91"/>
<text xml:space="preserve" text-anchor="middle" x="39.28" y="-89.76" font-family="Helvetica,sans-Serif" font-size="13.00">+</text>
</g>
<!-- model&#45;&gt;mot -->
</g>
</svg>
